<svg width="126" height="98" viewBox="0 0 126 98" fill="none" xmlns="http://www.w3.org/2000/svg">
<path d="M0.00624996 49.072H10.6623V14.32C10.6623 4.048 17.3823 0.687994 22.6623 0.687994C24.4863 0.687994 29.0943 1.07199 31.7823 4.72C34.5663 8.464 34.4703 11.44 34.4703 14.32V70H27.0782V55.984H18.0543V70H10.6623V55.984H4.32625L0.00624996 49.072ZM18.0543 49.072H27.0782V14.32C27.0782 12.016 27.0782 8.08 22.5663 8.08C18.0543 8.08 18.0543 12.112 18.0543 14.32V49.072ZM37.3187 49.072H47.9748V2.41599H55.3668V49.072C57.1908 47.728 60.4548 45.232 62.4708 41.104C65.4468 35.248 65.4468 30.928 65.4468 27.952V2.41599H72.9348V27.952C72.9348 35.44 71.3028 43.312 65.4468 48.976C72.9348 51.088 72.9348 56.56 72.9348 59.536V70H65.4468V59.344C65.4468 57.424 65.4468 55.984 62.3748 55.984H55.3668V70H47.9748V55.984H41.6388L37.3187 49.072ZM74.4392 49.072H85.0953V2.41599H92.4873V49.072H101.991V2.41599H109.383V70H101.991V55.984H92.4873V70H85.0953V55.984H78.7593L74.4392 49.072ZM125.192 70H117.8V62.608H125.192V70Z" fill="#822E27"/>
<path d="M27.7656 98V80.9375H33.0391C34.8047 80.9375 36.1562 81.3945 37.0938 82.3086C38.0391 83.2148 38.5117 84.4141 38.5117 85.9062C38.5117 87.4062 38.0391 88.625 37.0938 89.5625C36.1562 90.4922 34.8047 90.957 33.0391 90.957H29.8047V98H27.7656ZM29.8047 89.2812H33.0391C34.3203 89.2812 35.2148 88.957 35.7227 88.3086C36.2305 87.6602 36.4844 86.8633 36.4844 85.918C36.4844 84.9648 36.2305 84.1758 35.7227 83.5508C35.2148 82.9258 34.3203 82.6133 33.0391 82.6133H29.8047V89.2812ZM37.0938 98L32.9336 90.1133L34.9727 89.832L39.3672 98H37.0938ZM41.6406 98V80.9375H51.8594V82.6367H43.6797V88.3438H50.7695V90.043H43.6797V96.3008H51.9766V98H41.6406ZM52.7148 98L58.9023 80.8438H60.8711L67.0586 98H64.9492L60.3438 84.8047C60.25 84.5312 60.168 84.2734 60.0977 84.0312C60.0273 83.7891 59.9609 83.5391 59.8984 83.2812H59.8047C59.7422 83.5391 59.6758 83.7891 59.6055 84.0312C59.5352 84.2734 59.4531 84.5312 59.3594 84.8047L54.7422 98H52.7148ZM55.3398 93.4531L55.9492 91.7656H63.7891L64.3984 93.4531H55.3398ZM68.9219 98V80.9375H70.9609V96.3008H78.7891V98H68.9219ZM78.1328 82.6367V80.9375H90.8594V82.6367H85.5156V98H83.4883V82.6367H78.1328ZM97.1758 98V91.5078L91.4453 80.9375H93.7305L97.5625 88.25C97.6875 88.4844 97.8008 88.6992 97.9023 88.8945C98.0039 89.0898 98.0977 89.2969 98.1836 89.5156H98.2539C98.3398 89.2969 98.4336 89.0898 98.5352 88.8945C98.6367 88.6992 98.75 88.4844 98.875 88.25L102.742 80.9375H104.945L99.2148 91.5078V98H97.1758Z" fill="#6CA2E3"/>
</svg>
