<svg width="33" height="32" viewBox="0 0 33 32" fill="none" xmlns="http://www.w3.org/2000/svg">
<path d="M32.5 2.08696C32.5 0.934362 31.8284 0 31 0H2C1.17157 0 0.5 0.934362 0.5 2.08696C0.5 3.23955 1.17157 4.17391 2 4.17391H31C31.8284 4.17391 32.5 3.23955 32.5 2.08696Z" fill="#822E27"/>
<path d="M32.5 16C32.5 14.8474 31.8284 13.913 31 13.913H2C1.17157 13.913 0.5 14.8474 0.5 16C0.5 17.1526 1.17157 18.087 2 18.087H31C31.8284 18.087 32.5 17.1526 32.5 16Z" fill="#822E27"/>
<path d="M31 27.8261C31.8284 27.8261 32.5 28.7605 32.5 29.913C32.5 31.0656 31.8284 32 31 32H2C1.17157 32 0.5 31.0656 0.5 29.913C0.5 28.7605 1.17157 27.8261 2 27.8261H31Z" fill="#822E27"/>
</svg>
