<svg width="33" height="32" viewBox="0 0 33 32" fill="none" xmlns="http://www.w3.org/2000/svg">
<path fill-rule="evenodd" clip-rule="evenodd" d="M1.16948 0.66947C2.06211 -0.223156 3.50934 -0.223157 4.40197 0.66947L16.5 12.7675L28.598 0.669467C29.4907 -0.223159 30.9379 -0.223155 31.8305 0.669472C32.7232 1.56209 32.7232 3.00933 31.8305 3.90195L19.7325 16L31.8305 28.098C32.7231 28.9907 32.7231 30.4379 31.8305 31.3305C30.9379 32.2232 29.4907 32.2232 28.598 31.3305L16.5 19.2325L4.40195 31.3305C3.50933 32.2232 2.0621 32.2232 1.16947 31.3305C0.276844 30.4379 0.276843 28.9907 1.16947 28.098L13.2675 16L1.16948 3.90196C0.276858 3.00933 0.276858 1.5621 1.16948 0.66947Z" fill="#822E27"/>
</svg>
