<svg width="17" height="16" viewBox="0 0 17 16" fill="none" xmlns="http://www.w3.org/2000/svg">
<path fill-rule="evenodd" clip-rule="evenodd" d="M5.13599 2.73231C4.97062 2.40122 4.61168 2.32341 4.37107 2.47492C4.03167 2.68863 3.68812 2.92767 3.41666 3.16291C3.11923 3.42067 3.00685 3.59119 2.98648 3.65236C2.78914 4.245 2.59785 6.50433 6.28575 10.1961C9.97922 13.8934 12.1384 13.7271 12.8227 13.4988C12.9187 13.4667 13.105 13.3392 13.3582 13.0487C13.5945 12.7777 13.8276 12.4371 14.0326 12.1014C14.1728 11.872 14.0996 11.5261 13.7729 11.3626L11.5928 10.2714C11.5335 10.2417 11.4631 10.2444 11.4063 10.2786L10.3438 10.9167L10.3409 10.9185C10.3248 10.9285 10.2497 10.9752 10.1745 11.009C10.0802 11.0514 9.92168 11.106 9.72369 11.0885C9.44367 11.0638 9.13631 10.9226 8.77134 10.6716C8.39189 10.4107 7.88328 9.9837 7.19058 9.29028C6.4979 8.59689 6.07135 8.08776 5.81071 7.70792C5.56002 7.34258 5.41892 7.0349 5.39419 6.7546C5.3767 6.55638 5.43132 6.39773 5.4737 6.30325C5.50744 6.22804 5.55406 6.15282 5.56408 6.13665L5.56585 6.13377L6.20331 5.07024C6.23743 5.01331 6.24013 4.94288 6.21047 4.8835L5.13599 2.73231ZM3.62809 1.29252C4.63803 0.656583 5.88876 1.11592 6.38409 2.10762L7.45857 4.2588C7.70159 4.74535 7.67945 5.32246 7.39987 5.78891L6.83946 6.7239C6.86654 6.77236 6.90543 6.83616 6.96092 6.91703C7.15492 7.19976 7.51685 7.64143 8.17728 8.30255C8.83774 8.96369 9.27896 9.326 9.5614 9.5202C9.64218 9.57574 9.70591 9.61467 9.75431 9.64177L10.6883 9.08079C11.1543 8.80091 11.7308 8.77875 12.2168 9.02202L14.397 10.1132C15.3671 10.5988 15.8393 11.8215 15.2231 12.8302C14.9975 13.1996 14.718 13.6134 14.4096 13.9672C14.1181 14.3015 13.7275 14.6692 13.2639 14.8239C11.8619 15.2918 9.17172 15.0605 5.29904 11.1838C1.42078 7.3015 1.2295 4.51149 1.66267 3.21063C1.81083 2.76571 2.18226 2.38506 2.50335 2.1068C2.85043 1.80603 3.26011 1.52423 3.62809 1.29252Z" fill="#822E27"/>
</svg>
