<svg width="32" height="39" viewBox="0 0 32 39" fill="none" xmlns="http://www.w3.org/2000/svg">
<path fill-rule="evenodd" clip-rule="evenodd" d="M16 0.5C16.5304 0.5 17.0391 0.710714 17.4142 1.08579L25.4142 9.08579C26.1953 9.86684 26.1953 11.1332 25.4142 11.9142C24.6332 12.6953 23.3668 12.6953 22.5858 11.9142L18 7.32843L18 28.5C18 29.6046 17.1046 30.5 16 30.5C14.8954 30.5 14 29.6046 14 28.5L14 7.32843L9.41421 11.9142C8.63317 12.6953 7.36684 12.6953 6.58579 11.9142C5.80474 11.1332 5.80474 9.86684 6.58579 9.08579L14.5858 1.08579C14.9609 0.710714 15.4696 0.5 16 0.5Z" fill="#822E27"/>
<path d="M2 38.5C0.895431 38.5 4.82823e-08 37.6046 0 36.5C-4.82823e-08 35.3954 0.89543 34.5 2 34.5H30C31.1046 34.5 32 35.3954 32 36.5C32 37.6046 31.1046 38.5 30 38.5H2Z" fill="#822E27"/>
</svg>
