<svg width="20" height="20" viewBox="0 0 20 20" fill="none" xmlns="http://www.w3.org/2000/svg">
<path d="M9.99844 0.4375C8.33097 0.437772 6.69256 0.874065 5.24578 1.70309C3.799 2.53211 2.59415 3.72504 1.75078 5.1635C0.907409 6.60196 0.454844 8.23596 0.437989 9.90334C0.421133 11.5707 0.840575 13.2135 1.65469 14.6688L0.829691 17.5469C0.762323 17.7721 0.757152 18.0114 0.814727 18.2394C0.872302 18.4673 0.990477 18.6755 1.15673 18.8417C1.32298 19.008 1.53111 19.1261 1.75907 19.1837C1.98702 19.2413 2.22631 19.2361 2.45157 19.1688L5.32969 18.3438C6.60497 19.0578 8.02696 19.4699 9.48639 19.5486C10.9458 19.6273 12.4039 19.3704 13.7485 18.7977C15.0932 18.2249 16.2887 17.3516 17.2431 16.2447C18.1976 15.1378 18.8856 13.8269 19.2544 12.4126C19.6231 10.9983 19.6628 9.51834 19.3703 8.08635C19.0778 6.65435 18.461 5.30846 17.5671 4.15207C16.6733 2.99567 15.5263 2.05955 14.2143 1.41561C12.9022 0.771682 11.46 0.437075 9.99844 0.4375ZM9.99844 18.4375C8.48405 18.4371 6.99769 18.029 5.69532 17.2562C5.60579 17.2085 5.50616 17.1828 5.40469 17.1813C5.35396 17.1782 5.30311 17.1846 5.25469 17.2L2.14219 18.0906C2.10961 18.1007 2.07492 18.1016 2.04184 18.0934C2.00875 18.0852 1.97853 18.0681 1.95443 18.044C1.93033 18.0199 1.91325 17.9897 1.90504 17.9566C1.89682 17.9235 1.89779 17.8888 1.90782 17.8563L2.79844 14.7438C2.81947 14.6703 2.82532 14.5934 2.81565 14.5176C2.80598 14.4419 2.78099 14.3689 2.74219 14.3031C1.79276 12.7018 1.39958 10.8314 1.62388 8.98336C1.84819 7.1353 2.6774 5.4133 3.98234 4.08559C5.28728 2.75789 6.99469 1.89903 8.8386 1.6428C10.6825 1.38657 12.5594 1.74736 14.1769 2.66896C15.7944 3.59056 17.0617 5.02123 17.7814 6.73812C18.5011 8.45501 18.6328 10.3617 18.1559 12.1612C17.6791 13.9608 16.6205 15.5521 15.145 16.6873C13.6695 17.8225 11.8601 18.4378 9.99844 18.4375ZM14.8266 11.575L12.9047 10.4781C12.7024 10.364 12.4735 10.3056 12.2412 10.3089C12.009 10.3122 11.7818 10.3771 11.5828 10.4969L10.3828 11.2188C9.7008 10.8558 9.14261 10.2976 8.77969 9.61563L9.50157 8.41563C9.62137 8.21665 9.68623 7.98945 9.68952 7.75722C9.69282 7.52499 9.63443 7.29604 9.52032 7.09375L8.42344 5.17188C8.31694 4.9874 8.16395 4.83406 7.97972 4.72715C7.79549 4.62023 7.58645 4.56346 7.37344 4.5625C6.52969 4.5625 5.72035 4.89703 5.12285 5.49278C4.52534 6.08853 4.18842 6.89687 4.18594 7.74063C4.18471 8.8002 4.39234 9.84962 4.79697 10.8289C5.2016 11.8082 5.79528 12.6981 6.54408 13.4477C7.29287 14.1974 8.18209 14.7921 9.16089 15.1979C10.1397 15.6036 11.1889 15.8125 12.2484 15.8125H12.2578C13.1016 15.81 13.9099 15.4731 14.5057 14.8756C15.1014 14.2781 15.4359 13.4688 15.4359 12.625C15.435 12.412 15.3782 12.203 15.2713 12.0187C15.1644 11.8345 15.011 11.6815 14.8266 11.575ZM12.2578 14.6875H12.2484C10.4076 14.685 8.64308 13.952 7.34232 12.6495C6.04155 11.347 5.31094 9.58143 5.31094 7.74063C5.31342 7.19524 5.53181 6.67304 5.91834 6.28827C6.30486 5.90351 6.82805 5.68749 7.37344 5.6875C7.40234 5.68987 7.42921 5.7033 7.44844 5.725L8.54532 7.64688C8.56037 7.6762 8.56743 7.70897 8.56579 7.74188C8.56414 7.7748 8.55385 7.8067 8.53594 7.83438L7.66407 9.30625C7.6147 9.382 7.58537 9.46905 7.57881 9.55923C7.57225 9.64941 7.58868 9.73978 7.62657 9.82188C8.13909 10.9531 9.04538 11.8594 10.1766 12.3719C10.2587 12.4098 10.349 12.4262 10.4392 12.4196C10.5294 12.4131 10.6164 12.3837 10.6922 12.3344L12.1641 11.4625C12.1917 11.4446 12.2236 11.4343 12.2566 11.4327C12.2895 11.431 12.3222 11.4381 12.3516 11.4531L14.2734 12.55C14.2951 12.5692 14.3086 12.5961 14.3109 12.625C14.3109 13.1704 14.0949 13.6936 13.7102 14.0801C13.3254 14.4666 12.8032 14.685 12.2578 14.6875Z" fill="#822E27"/>
</svg>
